<svg width="100" height="35" viewBox="0 0 100 35" fill="none" xmlns="http://www.w3.org/2000/svg">
<path fill-rule="evenodd" clip-rule="evenodd" d="M52.4941 13.4688V15.5257H54.592V13.4688H52.4941ZM52.4941 17.3193V28.2629H54.592V17.3193H52.4941ZM77.4289 22.8827V28.2633H79.5569V22.1836C79.5569 21.8458 79.5268 21.454 79.4665 21.0081C79.4063 20.5623 79.2925 20.1063 79.1253 19.6402C78.958 19.1741 78.7137 18.7451 78.3925 18.3533C78.078 17.9547 77.6665 17.6339 77.1579 17.3907C76.6494 17.1475 76.0204 17.0259 75.2709 17.0259C74.2939 17.0259 73.4608 17.2387 72.7716 17.6643C72.3502 17.9244 71.9889 18.2478 71.6875 18.6342V13.6719H69.8105V28.2633H71.9385V22.5686C71.9385 21.9201 72.0087 21.3695 72.1493 20.9169C72.2965 20.4643 72.4939 20.0995 72.7415 19.8226C72.9958 19.5456 73.2902 19.3463 73.6248 19.2247C73.9593 19.0964 74.314 19.0322 74.6887 19.0322C75.2642 19.0322 75.7293 19.1504 76.0839 19.3869C76.4453 19.6233 76.723 19.934 76.917 20.3191C77.1178 20.7041 77.2516 21.123 77.3185 21.5756C77.3921 22.0214 77.4289 22.4571 77.4289 22.8827ZM86.9805 28.5672C85.9031 28.5672 84.9563 28.3308 84.1399 27.8579C83.3302 27.3783 82.6978 26.7129 82.2428 25.8617C81.7945 25.0038 81.5703 24.0107 81.5703 22.8826C81.5703 21.6869 81.7911 20.65 82.2328 19.7718C82.6811 18.8936 83.3034 18.2147 84.0997 17.7351C84.896 17.2554 85.8228 17.0156 86.8801 17.0156C87.9842 17.0156 88.9244 17.2757 89.7006 17.7959C90.4768 18.3093 91.0557 19.0422 91.4371 19.9947C91.8252 20.9472 91.9791 22.0787 91.8988 23.3893H90.8549H89.801H83.8222C83.8976 24.3073 84.1541 25.0402 84.5916 25.5881C85.1202 26.2434 85.883 26.571 86.8801 26.571C87.5359 26.571 88.1013 26.4224 88.5764 26.1251C89.0582 25.8212 89.4329 25.3888 89.7006 24.8281L91.7583 25.4868C91.3367 26.4663 90.6977 27.2263 89.8411 27.7667C88.9846 28.3004 88.0311 28.5672 86.9805 28.5672ZM89.0783 19.8022C89.4309 20.2598 89.6545 20.9049 89.7493 21.7376H83.8696C83.9804 20.9768 84.2211 20.3621 84.5916 19.8934C85.1202 19.2246 85.9098 18.8902 86.9604 18.8902C87.9106 18.8902 88.6166 19.1942 89.0783 19.8022ZM94.1484 17.3209H96.0154V19.0726C96.0945 18.932 96.1815 18.7973 96.2764 18.6686C96.4905 18.3714 96.7381 18.1282 97.0191 17.9391C97.2935 17.7364 97.598 17.581 97.9325 17.4729C98.2738 17.3581 98.6218 17.2906 98.9764 17.2703C99.3311 17.2433 99.6724 17.2602 100 17.3209V19.307C99.6456 19.2124 99.2508 19.1854 98.8158 19.2259C98.3876 19.2665 97.9928 19.405 97.6314 19.6414C97.2902 19.8643 97.0191 20.1345 96.8184 20.452C96.6243 20.7695 96.4838 21.1242 96.3968 21.516C96.3098 21.901 96.2663 22.3097 96.2663 22.7421V28.2645H94.1484V17.3209ZM62.6967 28.5672C61.6595 28.5672 60.7896 28.3139 60.0869 27.8072C59.9537 27.7098 59.8265 27.606 59.7055 27.4957V33.127H57.5977V17.3196H59.4646V18.2974C59.6491 18.1054 59.8498 17.9315 60.0669 17.7756C60.7695 17.2689 61.6327 17.0156 62.6565 17.0156C63.6736 17.0156 64.5502 17.2689 65.2863 17.7756C66.0291 18.2755 66.6012 18.9612 67.0027 19.8326C67.4042 20.6973 67.6049 21.6802 67.6049 22.7813C67.6049 23.8756 67.4042 24.8619 67.0027 25.7401C66.6079 26.6115 66.0425 27.3006 65.3064 27.8072C64.577 28.3139 63.7071 28.5672 62.6967 28.5672ZM59.7657 20.775C59.565 21.3559 59.4646 22.0247 59.4646 22.7813C59.4646 23.5379 59.565 24.2066 59.7657 24.7876C59.9665 25.3686 60.2843 25.8245 60.7193 26.1555C61.1542 26.4866 61.7163 26.6521 62.4056 26.6521C63.0747 26.6521 63.6268 26.4798 64.0617 26.1353C64.5034 25.7908 64.8313 25.328 65.0454 24.7471C65.2662 24.1594 65.3766 23.5041 65.3766 22.7813C65.3766 22.0652 65.2662 21.4167 65.0454 20.8357C64.8313 20.2548 64.5 19.7921 64.0517 19.4475C63.6034 19.103 63.0312 18.9308 62.3353 18.9308C61.6795 18.9308 61.1375 19.0929 60.7093 19.4171C60.2877 19.7414 59.9732 20.194 59.7657 20.775ZM45.8157 28.5672C44.7049 28.5672 43.7614 28.3172 42.9852 27.8173C42.2089 27.3175 41.6134 26.6318 41.1985 25.7604C40.7903 24.8889 40.5829 23.8993 40.5762 22.7914C40.5829 21.6633 40.797 20.6669 41.2186 19.8022C41.6401 18.9308 42.2424 18.2485 43.0253 17.7553C43.8082 17.2622 44.7484 17.0156 45.8458 17.0156C47.0302 17.0156 48.0407 17.3129 48.8771 17.9073C49.7202 18.5018 50.2757 19.3158 50.5433 20.3494L48.4555 20.9573C48.2481 20.3426 47.9068 19.8664 47.4317 19.5286C46.9633 19.1841 46.4246 19.0118 45.8157 19.0118C45.1265 19.0118 44.561 19.1773 44.1194 19.5083C43.6777 19.8326 43.3498 20.2784 43.1357 20.8459C42.9216 21.4133 42.8112 22.0618 42.8045 22.7914C42.8112 23.9195 43.0654 24.8315 43.5673 25.5273C44.0759 26.2231 44.8253 26.571 45.8157 26.571C46.4916 26.571 47.0369 26.4156 47.4518 26.1049C47.8734 25.7874 48.1946 25.3348 48.4154 24.7471L50.5433 25.2537C50.1887 26.3211 49.6031 27.1418 48.7868 27.716C47.9704 28.2835 46.98 28.5672 45.8157 28.5672ZM34.2728 15.6681V28.2633H36.3706V15.6681H41.1785V13.6719H29.4648V15.6681H34.2728Z" fill="#04032D"/>
<path fill-rule="evenodd" clip-rule="evenodd" d="M22.3214 19.9132L20.8928 21.5134H19.1071L3.16534 21.354L8.07318 28.2692H14.2892L16.7857 25.2471H18.9285L11.0714 34.8481L11.0701 34.8464L0 19.9132H22.3214ZM5.35713 9.77881L5.17856 19.202H0.178571L0.357142 11.9124L5.35713 9.77881ZM11.0714 6.57847V19.0242H6.07142V9.06763L11.0714 6.57847ZM16.7857 3.37814V19.0242H11.9643V6.22288L16.7857 3.37814ZM22.1428 0V19.0242H17.5V2.84475L22.1428 0Z" fill="#725FFE"/>
<path opacity="0.42" d="M22.1439 0V19.0242H19.4654V1.77797L22.1439 0ZM16.7868 3.37814V19.0242H14.1082V5.1561L16.7868 3.37814ZM10.894 6.57847V19.0242H8.21539V8.00085L10.894 6.57847ZM5.35825 9.77881V19.0242H2.67969V11.0234L5.35825 9.77881Z" fill="#BBB6FC"/>
</svg>
