<svg width="24" height="24" viewBox="0 0 24 24" fill="none" xmlns="http://www.w3.org/2000/svg">
<g id="Iconsax/TwoTone/book1">
<path id="Vector" d="M22 16.742V4.672C22 3.472 21.02 2.582 19.83 2.682H19.77C17.67 2.862 14.48 3.932 12.7 5.052L12.53 5.162C12.24 5.342 11.76 5.342 11.47 5.162L11.22 5.012C9.44 3.902 6.26 2.842 4.16 2.672C2.97 2.572 2 3.472 2 4.662V16.742C2 17.702 2.78 18.602 3.74 18.722L4.03 18.762C6.2 19.052 9.55 20.152 11.47 21.202L11.51 21.222C11.78 21.372 12.21 21.372 12.47 21.222C14.39 20.162 17.75 19.052 19.93 18.762L20.26 18.722C21.22 18.602 22 17.702 22 16.742Z" stroke="#8180A3" stroke-width="1.5" stroke-linecap="round" stroke-linejoin="round"/>
<path id="Vector_2" opacity="0.4" d="M12 5.48801V20.488M7.75 8.48801H5.5M8.5 11.488H5.5" stroke="#8180A3" stroke-width="1.5" stroke-linecap="round" stroke-linejoin="round"/>
</g>
</svg>
