<svg width="24" height="24" viewBox="0 0 24 24" fill="none" xmlns="http://www.w3.org/2000/svg">
<g id="Iconsax/TwoTone/moneys">
<path id="Vector" d="M19.3 7.91999V13.07C19.3 16.15 17.54 17.47 14.9 17.47H6.11002C5.66002 17.47 5.23002 17.43 4.83002 17.34C4.58002 17.3 4.34002 17.23 4.12002 17.15C2.62002 16.59 1.71002 15.29 1.71002 13.07V7.91999C1.71002 4.83999 3.47002 3.51999 6.11002 3.51999H14.9C17.14 3.51999 18.75 4.46999 19.18 6.63999C19.25 7.03999 19.3 7.44999 19.3 7.91999Z" stroke="#8180A3" stroke-width="1.5" stroke-miterlimit="10" stroke-linecap="round" stroke-linejoin="round"/>
<path id="Vector_2" opacity="0.4" d="M22.298 10.92V16.07C22.298 19.15 20.538 20.47 17.898 20.47H9.108C8.368 20.47 7.698 20.37 7.118 20.15C5.928 19.71 5.118 18.8 4.828 17.34C5.228 17.43 5.658 17.47 6.108 17.47H14.898C17.538 17.47 19.298 16.15 19.298 13.07V7.92001C19.298 7.45001 19.258 7.03001 19.178 6.64001C21.078 7.04001 22.298 8.38001 22.298 10.92Z" stroke="#8180A3" stroke-width="1.5" stroke-miterlimit="10" stroke-linecap="round" stroke-linejoin="round"/>
<path id="Vector_3" d="M10.5 13.14C11.2002 13.14 11.8717 12.8618 12.3667 12.3667C12.8618 11.8717 13.14 11.2002 13.14 10.5C13.14 9.79981 12.8618 9.12832 12.3667 8.63322C11.8717 8.13813 11.2002 7.85999 10.5 7.85999C9.79981 7.85999 9.12832 8.13813 8.63322 8.63322C8.13813 9.12832 7.85999 9.79981 7.85999 10.5C7.85999 11.2002 8.13813 11.8717 8.63322 12.3667C9.12832 12.8618 9.79981 13.14 10.5 13.14Z" stroke="#8180A3" stroke-width="1.5" stroke-miterlimit="10" stroke-linecap="round" stroke-linejoin="round"/>
<path id="Vector_4" opacity="0.4" d="M4.78101 8.29999V12.7M16.219 8.29999V12.7" stroke="#8180A3" stroke-width="1.5" stroke-miterlimit="10" stroke-linecap="round" stroke-linejoin="round"/>
</g>
</svg>
