<svg width="24" height="24" viewBox="0 0 24 24" fill="none" xmlns="http://www.w3.org/2000/svg">
<g id="Iconsax/TwoTone/notepad2">
<path id="Vector" d="M21.66 10.438L20.68 14.618C19.84 18.228 18.18 19.688 15.06 19.388C14.56 19.348 14.02 19.258 13.44 19.118L11.76 18.718C7.59 17.728 6.3 15.668 7.28 11.488L8.26 7.29799C8.46 6.44799 8.7 5.70799 9 5.09799C10.17 2.67799 12.16 2.02799 15.5 2.81799L17.17 3.20799C21.36 4.18799 22.64 6.25799 21.66 10.438Z" stroke="#8180A3" stroke-width="1.5" stroke-linecap="round" stroke-linejoin="round"/>
<path id="Vector_2" opacity="0.4" d="M12.64 8.531L17.49 9.761M11.66 12.398L14.56 13.138M15.058 19.392C14.438 19.812 13.658 20.162 12.708 20.472L11.128 20.992C7.15802 22.272 5.06802 21.202 3.77802 17.232L2.49802 13.282C1.21802 9.312 2.27802 7.212 6.24802 5.932L7.82802 5.412C8.23802 5.282 8.62802 5.17201 8.99802 5.10201C8.69802 5.71201 8.45802 6.452 8.25802 7.302L7.27802 11.492C6.29802 15.672 7.58802 17.732 11.758 18.722L13.438 19.122C14.018 19.262 14.558 19.352 15.058 19.392Z" stroke="#8180A3" stroke-width="1.5" stroke-linecap="round" stroke-linejoin="round"/>
</g>
</svg>
