<svg width="19" height="24" viewBox="0 0 19 24" fill="none" xmlns="http://www.w3.org/2000/svg">
<path fill-rule="evenodd" clip-rule="evenodd" d="M1.00083 13.9662V13.7253C1.03295 13.0126 1.2406 12.322 1.60236 11.7249C2.2045 11.0075 2.6167 10.1284 2.79571 9.1798C2.79571 8.44665 2.79571 7.70304 2.85393 6.96989C3.15469 3.44032 6.32728 1 9.46106 1H9.53867C12.6725 1 15.845 3.44032 16.1555 6.96989C16.2137 7.70304 16.1555 8.44665 16.204 9.1798C16.3854 10.1306 16.7972 11.0124 17.3974 11.7353C17.7618 12.3272 17.9698 13.0153 17.9989 13.7253V13.9557C18.0206 14.9132 17.7208 15.8469 17.1548 16.5846C16.407 17.4471 15.3921 17.9837 14.3024 18.0927C11.107 18.4698 7.88303 18.4698 4.68762 18.0927C3.59914 17.979 2.58576 17.4431 1.83521 16.5846C1.278 15.8463 0.982241 14.9182 1.00083 13.9662Z" stroke="#0B1728" stroke-width="1.6" stroke-linecap="round" stroke-linejoin="round"/>
<path d="M7.05527 21.7363C7.55454 22.4257 8.28773 22.8718 9.09256 22.976C9.89739 23.0802 10.7075 22.8338 11.3436 22.2914C11.5392 22.131 11.7153 21.9445 11.8675 21.7363" stroke="#B1B5BC" stroke-width="1.6" stroke-linecap="round" stroke-linejoin="round"/>
</svg>
