<svg width="24" height="24" viewBox="0 0 24 24" fill="none" xmlns="http://www.w3.org/2000/svg">
<g id="Iconsax/TwoTone/people">
<path id="Vector" opacity="0.4" d="M16.968 14.44C18.338 14.67 19.848 14.43 20.908 13.72C22.318 12.78 22.318 11.24 20.908 10.3C19.838 9.59 18.308 9.35 16.938 9.59M6.99701 14.44C5.62701 14.67 4.11701 14.43 3.05701 13.72C1.64701 12.78 1.64701 11.24 3.05701 10.3C4.12701 9.59 5.65701 9.35 7.02701 9.59M17.998 7.16C17.9351 7.14999 17.871 7.14999 17.808 7.16C17.1406 7.13587 16.5088 6.85321 16.046 6.37176C15.5832 5.89032 15.3258 5.2478 15.328 4.58C15.328 3.15 16.478 2 17.908 2C18.5923 2 19.2485 2.27182 19.7323 2.75566C20.2162 3.23951 20.488 3.89574 20.488 4.58C20.4862 5.24827 20.226 5.88996 19.7619 6.37081C19.2978 6.85167 18.6658 7.13445 17.998 7.16ZM5.96701 7.16C6.02701 7.15 6.09701 7.15 6.15701 7.16C6.82438 7.13587 7.45622 6.85321 7.91901 6.37176C8.38179 5.89032 8.63927 5.2478 8.63701 4.58C8.63701 3.15 7.48701 2 6.05701 2C5.37275 2 4.71652 2.27182 4.23268 2.75566C3.74883 3.23951 3.47701 3.89574 3.47701 4.58C3.48701 5.98 4.58701 7.11 5.96701 7.16Z" stroke="#8180A3" stroke-width="1.5" stroke-linecap="round" stroke-linejoin="round"/>
<path id="Vector_2" d="M11.998 14.629C11.9351 14.619 11.8709 14.619 11.808 14.629C11.1406 14.6049 10.5088 14.3222 10.046 13.8408C9.58321 13.3593 9.32574 12.7168 9.32799 12.049C9.32799 10.619 10.478 9.46899 11.908 9.46899C12.5923 9.46899 13.2485 9.74082 13.7323 10.2247C14.2162 10.7085 14.488 11.3647 14.488 12.049C14.478 13.449 13.378 14.589 11.998 14.629ZM9.08899 17.78C7.67899 18.72 7.67899 20.26 9.08899 21.2C10.689 22.27 13.309 22.27 14.909 21.2C16.319 20.26 16.319 18.72 14.909 17.78C13.319 16.72 10.689 16.72 9.08899 17.78Z" stroke="#8180A3" stroke-width="1.5" stroke-linecap="round" stroke-linejoin="round"/>
</g>
</svg>
