<svg width="18" height="18" viewBox="0 0 18 18" fill="none" xmlns="http://www.w3.org/2000/svg">
<path id="Vector" d="M15.2222 8.11111H2.77778M15.2222 8.11111C15.6937 8.11111 16.1459 8.29841 16.4793 8.63181C16.8127 8.96521 17 9.41739 17 9.88889V15.2222C17 15.6937 16.8127 16.1459 16.4793 16.4793C16.1459 16.8127 15.6937 17 15.2222 17H2.77778C2.30628 17 1.8541 16.8127 1.5207 16.4793C1.1873 16.1459 1 15.6937 1 15.2222V9.88889C1 9.41739 1.1873 8.96521 1.5207 8.63181C1.8541 8.29841 2.30628 8.11111 2.77778 8.11111M15.2222 8.11111V6.33333C15.2222 5.86184 15.0349 5.40965 14.7015 5.07625C14.3681 4.74286 13.9159 4.55556 13.4444 4.55556M2.77778 8.11111V6.33333C2.77778 5.86184 2.96508 5.40965 3.29848 5.07625C3.63187 4.74286 4.08406 4.55556 4.55556 4.55556M13.4444 4.55556V2.77778C13.4444 2.30628 13.2571 1.8541 12.9237 1.5207C12.5903 1.1873 12.1382 1 11.6667 1H6.33333C5.86184 1 5.40965 1.1873 5.07625 1.5207C4.74286 1.8541 4.55556 2.30628 4.55556 2.77778V4.55556M13.4444 4.55556H4.55556" stroke="#0B1728" stroke-width="1.5" stroke-linecap="round" stroke-linejoin="round"/>
</svg>
