<svg width="31" height="31" viewBox="0 0 31 31" fill="none" xmlns="http://www.w3.org/2000/svg">
<g id="Group 1">
<path id="Vector 60" d="M1.72461 25.6556L10.5327 18.1058C11.2939 17.4533 12.4207 17.4653 13.1679 18.1339L25.6212 29.2763" stroke="#A6B0C2" stroke-width="2"/>
<path id="Vector 61" d="M18.3789 22.7586L21.4866 20.1689C22.2089 19.567 23.2528 19.5494 23.9949 20.1266L29.241 24.2069" stroke="#A6B0C2" stroke-width="2"/>
<path id="Rectangle 11" d="M15.4828 1.03442H7C3.68629 1.03442 1 3.72072 1 7.03443V23.9999C1 27.3137 3.68629 29.9999 7 29.9999H23.9655C27.2792 29.9999 29.9655 27.3137 29.9655 23.9999V15.5172" stroke="#A6B0C2" stroke-width="2" stroke-linecap="round"/>
<g id="Group 5865">
<rect id="Rectangle 12" x="24.2764" width="2.06897" height="11.3793" rx="1.03448" fill="#A6B0C2"/>
<rect id="Rectangle 13" x="31" y="4.65515" width="2.06897" height="11.3793" rx="1.03448" transform="rotate(90 31 4.65515)" fill="#A6B0C2"/>
</g>
</g>
</svg>
